<svg enable-background="new 0 0 1024 200" viewBox="0 0 1024 200" xmlns="http://www.w3.org/2000/svg">   <style>
        path {
            fill: black;
        }
        @media (prefers-color-scheme: dark) {
            path { fill: white; }
        }
    </style>
<path d="m92.1 11.3v27.2c-1.9-.2-5-.4-9.4-.5s-7.5.9-9.1 2.9c-1.8 2.1-2.6 4.4-2.6 6.9v10.8h21.9v23.6h-21.9v103h-33.3v-103h-18.6v-23.6h18.3v-8.2c0-13.7 2.3-23.1 6.9-28.2 4.8-7.7 16.5-11.5 35-11.5 2.1 0 4 .1 5.7.2 1.8 0 4.1.2 7.1.4z"/><path d="m164.3 88.2c-13.4 0-22.5 4.4-27.1 13.1-2.6 4.9-3.9 12.5-3.9 22.7v61.1h-33.5v-127.7h31.9v22.3c5.2-8.5 9.6-14.3 13.5-17.5 6.2-5.2 14.4-7.9 24.4-7.9.6 0 1.2 0 1.6.1.4 0 1.4.1 2.9.2v34.2c-2.1-.2-4-.4-5.6-.5-1.8 0-3.2-.1-4.2-.1z"/><path d="m186.3 71.2c8.8-11.2 24-16.9 45.5-16.9 14 0 26.4 2.8 37.3 8.3s16.3 16 16.3 31.4v58.6c0 4.1.1 9 .2 14.8.2 4.4.9 7.3 2 8.9s2.7 2.9 4.9 3.9v4.9h-36.3c-1-2.6-1.7-5-2.1-7.3s-.7-4.8-.9-7.7c-4.6 5-9.9 9.3-15.9 12.8-7.2 4.1-15.3 6.2-24.4 6.2-11.6 0-21.1-3.3-28.7-9.9-7.5-6.6-11.3-16-11.3-28.1 0-15.7 6.1-27.1 18.2-34.1 6.6-3.8 16.4-6.6 29.3-8.2l11.4-1.4c6.2-.8 10.6-1.8 13.2-2.9 4.8-2 7.1-5.2 7.1-9.5 0-5.2-1.8-8.8-5.4-10.8s-9-3-16-3c-7.9 0-13.5 2-16.8 5.9-2.3 2.9-3.9 6.8-4.7 11.7h-32.2c.6-11.2 3.8-20.4 9.3-27.6zm24.9 89.8c3.1 2.6 7 3.9 11.5 3.9 7.2 0 13.8-2.1 19.9-6.3s9.2-11.9 9.4-23.1v-12.5c-2.1 1.3-4.2 2.4-6.4 3.2-2.1.8-5.1 1.6-8.8 2.3l-7.5 1.4c-7 1.3-12.1 2.8-15.1 4.6-5.2 3-7.7 7.8-7.7 14.2-.2 5.7 1.4 9.8 4.7 12.3z"/><path d="m374.7 92.6c-2.8-6.2-8.3-9.3-16.5-9.3-9.5 0-15.9 3.1-19.2 9.3-1.8 3.5-2.7 8.8-2.7 15.7v76.9h-33.9v-127.6h32.5v18.6c4.1-6.6 8-11.4 11.7-14.2 6.5-5 14.9-7.5 25.2-7.5 9.8 0 17.7 2.1 23.7 6.4 4.8 4 8.5 9.1 11 15.4 4.4-7.5 9.8-13 16.3-16.5 6.9-3.5 14.5-5.3 23-5.3 5.6 0 11.2 1.1 16.6 3.3 5.5 2.2 10.4 6 14.9 11.5 3.6 4.5 6 9.9 7.3 16.4.8 4.3 1.2 10.6 1.2 18.9l-.2 80.5h-34.2v-81.3c0-4.8-.8-8.8-2.3-12-3-5.9-8.4-8.9-16.4-8.9-9.2 0-15.6 3.8-19.1 11.5-1.8 4.1-2.7 8.9-2.7 14.6v76.1h-33.9v-76.1c0-7.5-.7-13-2.3-16.4z"/><path d="m613.7 147.6c-.9 7.6-4.8 15.3-11.8 23.1-10.9 12.4-26.2 18.6-45.9 18.6-16.3 0-30.6-5.2-43-15.7s-18.6-27.5-18.6-51.1c0-22.1 5.6-39.1 16.8-50.9 11.1-11.7 25.7-17.6 43.6-17.6 10.6 0 20.2 2 28.7 6s15.5 10.3 21.1 18.9c5 7.6 8.2 16.4 9.7 26.4.9 5.9 1.2 14.3 1.1 25.3h-87.4c.5 12.8 4.5 21.8 12.1 27 4.6 3.2 10.2 4.8 16.6 4.8 6.9 0 12.5-2 16.8-5.9 2.3-2.1 4.4-5 6.2-8.8h34zm-33-39.1c-.5-8.8-3.2-15.5-8-20.1s-10.8-6.9-17.9-6.9c-7.7 0-13.7 2.4-18 7.3-4.3 4.8-6.9 11.4-8 19.7z"/><path d="m764.3 92.6c-2.8-6.2-8.3-9.3-16.5-9.3-9.5 0-15.9 3.1-19.2 9.3-1.8 3.5-2.7 8.8-2.7 15.7v76.9h-33.9v-127.6h32.5v18.6c4.1-6.6 8-11.4 11.7-14.2 6.5-5 14.9-7.5 25.2-7.5 9.8 0 17.7 2.1 23.7 6.4 4.8 4 8.5 9.1 11 15.4 4.4-7.5 9.8-13 16.3-16.5 6.9-3.5 14.5-5.3 23-5.3 5.6 0 11.2 1.1 16.6 3.3 5.5 2.2 10.4 6 14.9 11.5 3.6 4.5 6 9.9 7.3 16.4.8 4.3 1.2 10.6 1.2 18.9l-.2 80.5h-34.2v-81.3c0-4.8-.8-8.8-2.3-12-3-5.9-8.4-8.9-16.4-8.9-9.2 0-15.6 3.8-19.1 11.5-1.8 4.1-2.7 8.9-2.7 14.6v76.1h-33.6v-76.1c-.3-7.5-1.1-13-2.6-16.4z"/><path d="m1003.3 147.6c-.9 7.6-4.8 15.3-11.8 23.1-10.9 12.4-26.2 18.6-45.9 18.6-16.3 0-30.6-5.2-43-15.7s-18.6-27.5-18.6-51.1c0-22.1 5.6-39.1 16.8-50.9 11.1-11.7 25.6-17.6 43.5-17.6 10.6 0 20.2 2 28.7 6s15.5 10.3 21.1 18.9c5 7.6 8.2 16.4 9.7 26.4.9 5.9 1.2 14.3 1.1 25.3h-87.4c.5 12.8 4.5 21.8 12.1 27 4.6 3.2 10.2 4.8 16.6 4.8 6.9 0 12.5-2 16.8-5.9 2.3-2.1 4.4-5 6.2-8.8h34.1zm-33.1-39.1c-.5-8.8-3.2-15.5-8-20.1s-10.8-6.9-17.9-6.9c-7.7 0-13.7 2.4-18 7.3-4.3 4.8-6.9 11.4-8 19.7z"/></svg>